<svg width="40" height="41" viewBox="0 0 40 41" fill="none" xmlns="http://www.w3.org/2000/svg">
<path d="M33.8438 21.3006C34.3012 22.4073 34.5434 25.4997 34.5425 26.6972L16.3047 26.6829C16.3056 25.4854 16.5352 22.3934 16.9943 21.2874C17.4534 20.1814 18.1259 19.1767 18.9733 18.3306C19.8208 17.4845 20.8266 16.8136 21.9333 16.3562C23.04 15.8988 24.2259 15.6638 25.4235 15.6648C26.621 15.6657 27.8066 15.9025 28.9126 16.3616C30.0185 16.8208 31.0233 17.4933 31.8694 18.3407C32.7155 19.1881 33.3864 20.1939 33.8438 21.3006Z" fill="#FF730D"/>
<path d="M33.8122 1.12653C35.3794 -1.71769 29.1327 2.07451 26.5542 6.54058C24.6055 9.91586 25.4945 15.5332 25.4945 15.5332C25.4945 15.5332 29.9652 14.404 32.7525 10.1192C35.1374 5.44544 32.2451 3.97075 33.8122 1.12653Z" fill="#28B328"/>
<path d="M15.7826 6.59163C15.7826 6.59163 14.9349 10.8048 17.6804 13.5503C20.4259 16.2959 24.6391 15.4482 24.6391 15.4482C24.6391 15.4482 24.8415 10.5897 22.7413 8.48946C19.9957 5.74393 15.7826 6.59163 15.7826 6.59163Z" fill="#28B328"/>
<path d="M3.34016 16.2524L1.19704 16.9171C0.962556 16.9899 0.709016 16.9657 0.492198 16.85C0.27538 16.7343 0.113043 16.5364 0.0408999 16.3C-0.0312428 16.0637 -0.00728149 15.8081 0.107511 15.5895C0.222304 15.3709 0.418527 15.2072 0.653012 15.1345L3.48752 14.2554C3.68475 14.1942 3.89659 14.2014 4.08935 14.2756C4.28211 14.3498 4.44471 14.4869 4.55131 14.665L10.4969 24.5948C10.5149 24.6193 10.5319 24.645 10.5477 24.6718L10.9206 25.3023L12.0403 27.1724C12.0625 27.2115 12.0817 27.2519 12.0979 27.2934L12.4894 27.9554C12.6062 27.901 12.7363 27.8707 12.8734 27.8707L38.1652 27.8707V22.19C38.1652 21.6793 38.5759 21.2652 39.0825 21.2652C39.5891 21.2652 39.9998 21.6793 39.9998 22.19V32.7396C40.0067 33.0854 39.82 33.4209 39.4927 33.5859L36.8718 34.907C36.4187 35.1354 35.8677 34.9502 35.6411 34.4934C35.4145 34.0366 35.5982 33.4811 36.0513 33.2527L38.1652 32.1872V29.7202L13.533 29.7202L15.6579 33.3135C15.9173 33.7522 15.7748 34.3199 15.3397 34.5814C14.9045 34.8429 14.3414 34.6993 14.082 34.2606L10.486 28.1794C10.4759 28.1652 10.4661 28.1507 10.4568 28.1358L3.34016 16.2524Z" fill="#003D2A"/>
<path fill-rule="evenodd" clip-rule="evenodd" d="M35.3826 37.4209C35.3826 38.2865 35.0415 39.1167 34.4344 39.7288C33.8272 40.3409 33.0037 40.6848 32.145 40.6848C31.2864 40.6848 30.4629 40.3409 29.8557 39.7288C29.2486 39.1167 28.9075 38.2865 28.9075 37.4209C28.9075 36.5553 29.2486 35.7251 29.8557 35.113C30.4629 34.5009 31.2864 34.157 32.145 34.157C33.0037 34.157 33.8272 34.5009 34.4344 35.113C35.0415 35.7251 35.3826 36.5553 35.3826 37.4209ZM33.548 37.4209C33.548 37.796 33.4002 38.1558 33.1371 38.421C32.874 38.6862 32.5171 38.8353 32.145 38.8353C31.773 38.8353 31.4161 38.6862 31.153 38.421C30.8899 38.1558 30.7421 37.796 30.7421 37.4209C30.7421 37.0458 30.8899 36.6861 31.153 36.4208C31.4161 36.1556 31.773 36.0066 32.145 36.0066C32.5171 36.0066 32.874 36.1556 33.1371 36.4208C33.4002 36.6861 33.548 37.0458 33.548 37.4209Z" fill="#003D2A"/>
<path fill-rule="evenodd" clip-rule="evenodd" d="M22.4323 37.4209C22.4323 37.8495 22.3485 38.274 22.1858 38.6699C22.0231 39.0659 21.7846 39.4257 21.484 39.7288C21.1834 40.0319 20.8265 40.2723 20.4337 40.4363C20.0409 40.6004 19.6199 40.6848 19.1947 40.6848C18.7695 40.6848 18.3485 40.6004 17.9557 40.4363C17.5629 40.2723 17.206 40.0319 16.9054 39.7288C16.6047 39.4257 16.3663 39.0659 16.2035 38.6699C16.0408 38.274 15.9571 37.8495 15.9571 37.4209C15.9571 36.5553 16.2982 35.7251 16.9054 35.113C17.5125 34.5009 18.336 34.157 19.1947 34.157C20.0534 34.157 20.8768 34.5009 21.484 35.113C22.0912 35.7251 22.4323 36.5553 22.4323 37.4209ZM20.5976 37.4209C20.5976 37.6066 20.5614 37.7906 20.4908 37.9622C20.4203 38.1338 20.317 38.2897 20.1867 38.421C20.0565 38.5523 19.9018 38.6565 19.7316 38.7276C19.5614 38.7987 19.3789 38.8353 19.1947 38.8353C19.0105 38.8353 18.828 38.7987 18.6578 38.7276C18.4876 38.6565 18.3329 38.5523 18.2027 38.421C18.0724 38.2897 17.969 38.1338 17.8985 37.9622C17.828 37.7906 17.7917 37.6067 17.7917 37.4209C17.7917 37.0458 17.9395 36.6861 18.2027 36.4208C18.4658 36.1556 18.8226 36.0066 19.1947 36.0066C19.5668 36.0066 19.9236 36.1556 20.1867 36.4208C20.4498 36.6861 20.5976 37.0458 20.5976 37.4209Z" fill="#003D2A"/>
</svg>
