<svg width="24" height="24" xmlns="http://www.w3.org/2000/svg"><defs><symbol id="phone" viewBox="0 0 24 24"><path d="m22.845 16.135-5.654-2.533-.015-.007a1.92 1.92 0 0 0-1.82.168.96.96 0 0 0-.09.067l-2.921 2.49c-1.85-.899-3.761-2.795-4.66-4.621l2.494-2.966c.024-.03.046-.06.068-.092a1.92 1.92 0 0 0 .158-1.807v-.015l-2.54-5.662A1.92 1.92 0 0 0 5.87.014 6.751 6.751 0 0 0 0 6.72C0 16.248 7.752 24 17.28 24a6.751 6.751 0 0 0 6.706-5.87 1.92 1.92 0 0 0-1.141-1.995ZM17.28 22.08A15.377 15.377 0 0 1 1.92 6.72a4.824 4.824 0 0 1 4.184-4.8v.014l2.52 5.64-2.48 2.969a.742.742 0 0 0-.068.092 1.92 1.92 0 0 0-.12 1.884c1.087 2.224 3.327 4.448 5.575 5.534a1.92 1.92 0 0 0 1.89-.137c.03-.02.06-.043.089-.067l2.917-2.49 5.64 2.527h.013a4.826 4.826 0 0 1-4.8 4.194Z"/></symbol><symbol id="chevron" viewBox="0 0 24 24"><path d="M12 0c-.596 0-1.193.298-1.49.596L.67 10.435a2.34 2.34 0 0 0 0 3.28 2.34 2.34 0 0 0 3.28 0L12 5.664l8.05 8.05a2.34 2.34 0 0 0 3.28 0 2.34 2.34 0 0 0 0-3.28L13.788.895C13.193.297 12.596 0 12 0Z"/></symbol><symbol id="search" viewBox="0 0 24 24"><path d="m23.73 22.425-5.771-5.77a10.155 10.155 0 1 0-1.304 1.304l5.77 5.77a.925.925 0 0 0 1.305 0 .925.925 0 0 0 0-1.304ZM1.87 10.168a8.299 8.299 0 1 1 8.298 8.299 8.308 8.308 0 0 1-8.298-8.299Z"/></symbol><symbol id="account" viewBox="0 0 24 24"><path d="M10.8 2.4a4.8 4.8 0 1 0 0 9.6 4.8 4.8 0 0 0 0-9.6ZM3.6 7.2a7.2 7.2 0 1 1 14.4 0 7.2 7.2 0 0 1-14.4 0Zm2.4 12a3.6 3.6 0 0 0-3.6 3.6 1.2 1.2 0 1 1-2.4 0 6 6 0 0 1 6-6h9.6a6 6 0 0 1 6 6 1.2 1.2 0 1 1-2.4 0 3.6 3.6 0 0 0-3.6-3.6H6Z"/></symbol><symbol id="cart" viewBox="0 0 24 24"><path d="M4.812 16.963 2.569 2.4H1.2a1.2 1.2 0 1 1 0-2.4h2.382a1.196 1.196 0 0 1 1.207 1.034L5.183 3.6H14.4V6H5.552l1.476 9.6h11.28l1.8-6h2.505l-2.263 7.545A1.2 1.2 0 0 1 19.2 18H6.02a1.198 1.198 0 0 1-1.208-1.037ZM9.6 21.6a2.4 2.4 0 1 1-4.8 0 2.4 2.4 0 0 1 4.8 0Zm10.8 0a2.4 2.4 0 1 1-4.801 0 2.4 2.4 0 0 1 4.801 0Zm0-21.6a1.2 1.2 0 0 1 1.2 1.2v1.2h1.2a1.2 1.2 0 1 1 0 2.4h-1.2V6a1.2 1.2 0 1 1-2.4 0V4.8H18a1.2 1.2 0 1 1 0-2.4h1.2V1.2A1.2 1.2 0 0 1 20.4 0Z"/></symbol><symbol id="filter" viewBox="0 0 24 24"><path d="M4.621 8.42V.924a.923.923 0 1 0-1.845 0V8.42a3.691 3.691 0 0 0 0 7.151v5.652a.923.923 0 0 0 1.845 0v-5.652a3.69 3.69 0 0 0 0-7.151Zm-.923 5.422a1.846 1.846 0 1 1 0-3.691 1.846 1.846 0 0 1 0 3.691Zm9.228-10.958V.923a.923.923 0 1 0-1.845 0v1.96a3.691 3.691 0 0 0 0 7.152v11.19a.923.923 0 0 0 1.845 0v-11.19a3.69 3.69 0 0 0 0-7.151Zm-.922 5.421a1.846 1.846 0 1 1 0-3.69 1.846 1.846 0 0 1 0 3.69ZM24 15.688a3.699 3.699 0 0 0-2.768-3.576V.922a.923.923 0 1 0-1.846 0v11.19a3.692 3.692 0 0 0 0 7.151v1.961a.923.923 0 0 0 1.846 0v-1.96A3.698 3.698 0 0 0 24 15.687Zm-3.691 1.845a1.846 1.846 0 1 1 0-3.692 1.846 1.846 0 0 1 0 3.692Z"/></symbol><symbol id="star-filled" viewBox="0 0 24 24"><path d="M23.914 8.708a1.714 1.714 0 0 0-1.479-1.179l-6.362-.548-2.493-5.93a1.709 1.709 0 0 0-3.154 0L7.94 6.98l-6.37.551a1.714 1.714 0 0 0-.975 3.006l4.832 4.223-1.449 6.27a1.714 1.714 0 0 0 2.554 1.858l5.463-3.32 5.475 3.32a1.714 1.714 0 0 0 2.554-1.857l-1.447-6.278 4.83-4.216a1.715 1.715 0 0 0 .507-1.83Z"/></symbol><symbol id="star-half" viewBox="0 0 24 24"><path d="m6.539 22.878 5.462-3.32V0a1.708 1.708 0 0 0-1.577 1.05L7.94 6.98l-6.368.55a1.713 1.713 0 0 0-.975 3.006l4.83 4.222-1.44 6.264a1.713 1.713 0 0 0 2.553 1.857Z" fill="#28B328"/><path d="m17.525 22.878-5.462-3.32V0a1.708 1.708 0 0 1 1.577 1.05l2.485 5.929 6.368.55a1.713 1.713 0 0 1 .976 3.006l-4.831 4.222 1.44 6.264a1.713 1.713 0 0 1-2.553 1.857Z" fill="#e6e6e6"/></symbol><symbol id="color-top" viewBox="0 0 24 12"><path d="M24 12a12 12 0 0 0-24 0h24Z"/></symbol><symbol id="color-bottom" viewBox="0 0 24 12"><path d="M0 0a12 12 0 0 0 24 0H0Z"/></symbol><symbol id="plus" viewBox="0 0 24 24"><path d="M24 12a1.44 1.44 0 0 1-1.44 1.44h-9.12v9.12a1.44 1.44 0 1 1-2.88 0v-9.12H1.44a1.44 1.44 0 1 1 0-2.88h9.12V1.44a1.44 1.44 0 1 1 2.88 0v9.12h9.12A1.44 1.44 0 0 1 24 12Z"/></symbol><symbol id="minus" viewBox="0 0 24 2.88"><path d="M23.578 3.018A1.44 1.44 0 0 0 22.56.56H1.44a1.44 1.44 0 0 0 0 2.88H22.56a1.44 1.44 0 0 0 1.018-.422Z"/></symbol><symbol id="truck" viewBox="0 0 24 24"><path d="m23.942 6.1-1.4-3.5a1.593 1.593 0 0 0-1.484-1H17.6V.8a.8.8 0 0 0-.8-.8H1.6A1.6 1.6 0 0 0 0 1.6v11.2a1.6 1.6 0 0 0 1.6 1.6h1.7a3.2 3.2 0 0 0 6.2 0h5a3.2 3.2 0 0 0 6.2 0h1.7a1.6 1.6 0 0 0 1.6-1.6V6.4a.793.793 0 0 0-.058-.3ZM17.6 3.2h3.458l.96 2.4H17.6V3.2Zm-16-1.6H16V8H1.6V1.6Zm4.8 13.6a1.6 1.6 0 1 1 0-3.199 1.6 1.6 0 0 1 0 3.199Zm8.1-2.4h-5a3.2 3.2 0 0 0-6.2 0H1.6V9.6H16v1.231a3.21 3.21 0 0 0-1.5 1.969Zm3.1 2.4a1.6 1.6 0 1 1 0-3.198 1.6 1.6 0 0 1 0 3.198Zm4.8-2.4h-1.7a3.206 3.206 0 0 0-3.1-2.4V7.2h4.8v5.6Z"/></symbol><symbol id="calendar" viewBox="0 0 24 30"><path d="M20.308 1.846h-2.77V.923a.923.923 0 0 0-1.846 0v.923h-9.23V.923a.923.923 0 1 0-1.847 0v.923H1.846A1.846 1.846 0 0 0 0 3.692v18.462A1.846 1.846 0 0 0 1.846 24h18.462a1.846 1.846 0 0 0 1.846-1.846V3.692a1.846 1.846 0 0 0-1.846-1.846ZM4.615 3.692v.923a.923.923 0 0 0 1.847 0v-.923h9.23v.923a.923.923 0 0 0 1.846 0v-.923h2.77v3.693H1.846V3.692h2.77Zm15.693 18.462H1.846V9.23h18.462v12.923Z"/></symbol><symbol id="hamburger" viewBox="0 0 24 24"><path fill-rule="evenodd" clip-rule="evenodd" d="M.25 1.029C.25.46.71 0 1.279 0H23.22a1.029 1.029 0 1 1 0 2.057H1.28C.71 2.057.25 1.597.25 1.03Z"/><path opacity=".5" fill-rule="evenodd" clip-rule="evenodd" d="M.25 7.886c0-.568.46-1.029 1.029-1.029H23.22a1.029 1.029 0 1 1 0 2.057H1.28C.71 8.914.25 8.454.25 7.886Z"/><path fill-rule="evenodd" clip-rule="evenodd" d="M.25 14.743c0-.568.46-1.029 1.029-1.029H23.22a1.029 1.029 0 1 1 0 2.057H1.28c-.568 0-1.029-.46-1.029-1.028Z"/></symbol></defs></svg>